<svg xmlns="http://www.w3.org/2000/svg" xmlns:xlink="http://www.w3.org/1999/xlink" viewBox="0 0 317.12 349.34"><defs><linearGradient id="a" y1="296.94" x2="104.8" y2="296.94" gradientUnits="userSpaceOnUse"><stop offset="0" stop-color="#357de9"/><stop offset="0.29" stop-color="#5a95ed"/><stop offset="0.57" stop-color="#6ca0ef"/><stop offset="0.85" stop-color="#f585ff"/><stop offset="1" stop-color="#f585ff"/></linearGradient><linearGradient id="b" y1="293.69" x2="104.8" y2="293.69" xlink:href="#a"/><linearGradient id="c" y1="290.44" x2="104.8" y2="290.44" xlink:href="#a"/><linearGradient id="d" y1="287.19" x2="104.8" y2="287.19" xlink:href="#a"/><linearGradient id="e" y1="283.94" x2="104.8" y2="283.94" xlink:href="#a"/><linearGradient id="f" y1="280.69" x2="104.8" y2="280.69" xlink:href="#a"/><linearGradient id="g" y1="277.44" x2="104.8" y2="277.44" xlink:href="#a"/><linearGradient id="h" y1="274.19" x2="104.8" y2="274.19" xlink:href="#a"/><linearGradient id="i" y1="270.94" x2="104.8" y2="270.94" xlink:href="#a"/><linearGradient id="j" y1="267.69" x2="104.8" y2="267.69" xlink:href="#a"/><linearGradient id="k" y1="264.44" x2="104.8" y2="264.44" xlink:href="#a"/><linearGradient id="l" y1="261.19" x2="104.8" y2="261.19" xlink:href="#a"/><linearGradient id="m" y1="257.94" x2="104.8" y2="257.94" xlink:href="#a"/><linearGradient id="n" y1="254.69" x2="104.8" y2="254.69" xlink:href="#a"/><linearGradient id="o" y1="251.44" x2="104.8" y2="251.44" xlink:href="#a"/><linearGradient id="p" y1="248.19" x2="104.8" y2="248.19" xlink:href="#a"/><linearGradient id="q" y1="244.94" x2="104.8" y2="244.94" xlink:href="#a"/><linearGradient id="r" y1="241.69" x2="104.8" y2="241.69" xlink:href="#a"/><linearGradient id="s" y1="238.44" x2="104.8" y2="238.44" xlink:href="#a"/><linearGradient id="t" y1="235.19" x2="104.8" y2="235.19" xlink:href="#a"/><linearGradient id="u" y1="231.94" x2="104.8" y2="231.94" xlink:href="#a"/><linearGradient id="v" y1="228.69" x2="104.8" y2="228.69" xlink:href="#a"/><linearGradient id="w" y1="225.44" x2="104.8" y2="225.44" xlink:href="#a"/><linearGradient id="x" y1="222.19" x2="104.8" y2="222.19" xlink:href="#a"/><linearGradient id="y" y1="218.94" x2="104.8" y2="218.94" xlink:href="#a"/><linearGradient id="z" y1="215.69" x2="104.8" y2="215.69" xlink:href="#a"/><linearGradient id="aa" y1="212.44" x2="104.8" y2="212.44" xlink:href="#a"/><linearGradient id="ab" y1="209.19" x2="104.8" y2="209.19" xlink:href="#a"/><linearGradient id="ac" y1="205.94" x2="104.8" y2="205.94" xlink:href="#a"/><linearGradient id="ad" y1="202.69" x2="104.8" y2="202.69" xlink:href="#a"/><linearGradient id="ae" y1="199.44" x2="104.8" y2="199.44" xlink:href="#a"/><linearGradient id="af" y1="196.19" x2="104.8" y2="196.19" xlink:href="#a"/><linearGradient id="ag" y1="192.94" x2="104.8" y2="192.94" xlink:href="#a"/><linearGradient id="ah" y1="189.69" x2="104.8" y2="189.69" xlink:href="#a"/><linearGradient id="ai" y1="186.44" x2="104.8" y2="186.44" xlink:href="#a"/><linearGradient id="aj" y1="183.19" x2="104.8" y2="183.19" xlink:href="#a"/><linearGradient id="ak" y1="179.94" x2="104.8" y2="179.94" xlink:href="#a"/><linearGradient id="al" y1="176.69" x2="104.8" y2="176.69" xlink:href="#a"/><linearGradient id="am" y1="173.44" x2="104.8" y2="173.44" xlink:href="#a"/><linearGradient id="an" y1="170.19" x2="104.8" y2="170.19" xlink:href="#a"/><linearGradient id="ao" y1="166.94" x2="104.8" y2="166.94" xlink:href="#a"/><linearGradient id="ap" y1="163.69" x2="104.8" y2="163.69" xlink:href="#a"/><linearGradient id="aq" y1="160.44" x2="104.8" y2="160.44" xlink:href="#a"/><linearGradient id="ar" y1="157.19" x2="104.8" y2="157.19" xlink:href="#a"/><linearGradient id="as" y1="153.94" x2="104.8" y2="153.94" xlink:href="#a"/><linearGradient id="at" y1="150.69" x2="104.8" y2="150.69" xlink:href="#a"/><linearGradient id="au" y1="147.44" x2="104.8" y2="147.44" xlink:href="#a"/><linearGradient id="av" y1="144.19" x2="104.8" y2="144.19" xlink:href="#a"/><linearGradient id="aw" y1="140.94" x2="104.8" y2="140.94" xlink:href="#a"/><linearGradient id="ax" y1="137.69" x2="104.8" y2="137.69" xlink:href="#a"/><linearGradient id="ay" y1="134.44" x2="104.8" y2="134.44" xlink:href="#a"/><linearGradient id="az" y1="131.19" x2="104.8" y2="131.19" xlink:href="#a"/><linearGradient id="ba" y1="127.94" x2="104.8" y2="127.94" xlink:href="#a"/><linearGradient id="bb" y1="124.69" x2="104.8" y2="124.69" xlink:href="#a"/><linearGradient id="bc" y1="121.44" x2="104.8" y2="121.44" xlink:href="#a"/><linearGradient id="bd" y1="118.19" x2="104.8" y2="118.19" xlink:href="#a"/><linearGradient id="be" y1="114.94" x2="104.8" y2="114.94" xlink:href="#a"/><linearGradient id="bf" y1="111.69" x2="104.8" y2="111.69" xlink:href="#a"/><linearGradient id="bg" y1="108.44" x2="104.8" y2="108.44" xlink:href="#a"/><linearGradient id="bh" y1="105.19" x2="104.8" y2="105.19" xlink:href="#a"/><linearGradient id="bi" y1="101.94" x2="104.8" y2="101.94" xlink:href="#a"/><linearGradient id="bj" y1="98.69" x2="104.8" y2="98.69" xlink:href="#a"/><linearGradient id="bk" y1="95.44" x2="104.8" y2="95.44" xlink:href="#a"/><linearGradient id="bl" y1="92.19" x2="104.8" y2="92.19" xlink:href="#a"/><linearGradient id="bm" y1="88.94" x2="104.8" y2="88.94" xlink:href="#a"/><linearGradient id="bn" y1="85.69" x2="104.8" y2="85.69" xlink:href="#a"/><linearGradient id="bo" y1="82.44" x2="104.8" y2="82.44" xlink:href="#a"/><linearGradient id="bp" y1="79.19" x2="104.8" y2="79.19" xlink:href="#a"/><linearGradient id="bq" y1="75.94" x2="104.8" y2="75.94" xlink:href="#a"/><linearGradient id="br" y1="72.69" x2="104.8" y2="72.69" xlink:href="#a"/><linearGradient id="bs" y1="69.44" x2="104.8" y2="69.44" xlink:href="#a"/><linearGradient id="bt" y1="66.19" x2="104.8" y2="66.19" xlink:href="#a"/><linearGradient id="bu" y1="62.94" x2="104.8" y2="62.94" xlink:href="#a"/><linearGradient id="bv" y1="59.69" x2="104.8" y2="59.69" xlink:href="#a"/><linearGradient id="bw" y1="56.44" x2="104.8" y2="56.44" xlink:href="#a"/><linearGradient id="bx" x1="0.16" y1="53.15" x2="104.96" y2="53.15" xlink:href="#a"/><linearGradient id="by" x1="2.82" y1="52.4" x2="107.62" y2="52.4" xlink:href="#a"/><linearGradient id="bz" x1="3.96" y1="54.23" x2="108.76" y2="54.23" xlink:href="#a"/><linearGradient id="ca" x1="4.72" y1="55.86" x2="109.52" y2="55.86" xlink:href="#a"/><linearGradient id="cb" x1="5.53" y1="57.6" x2="110.33" y2="57.6" xlink:href="#a"/><linearGradient id="cc" x1="6.41" y1="59.48" x2="111.21" y2="59.48" xlink:href="#a"/><linearGradient id="cd" x1="7.33" y1="61.47" x2="112.13" y2="61.47" xlink:href="#a"/><linearGradient id="ce" x1="8.32" y1="63.57" x2="113.12" y2="63.57" xlink:href="#a"/><linearGradient id="cf" x1="9.35" y1="65.78" x2="114.15" y2="65.78" xlink:href="#a"/><linearGradient id="cg" x1="10.43" y1="68.11" x2="115.23" y2="68.11" xlink:href="#a"/><linearGradient id="ch" x1="11.56" y1="70.53" x2="116.36" y2="70.53" xlink:href="#a"/><linearGradient id="ci" x1="12.74" y1="73.06" x2="117.54" y2="73.06" xlink:href="#a"/><linearGradient id="cj" x1="13.96" y1="75.68" x2="118.76" y2="75.68" xlink:href="#a"/><linearGradient id="ck" x1="15.23" y1="78.39" x2="120.03" y2="78.39" xlink:href="#a"/><linearGradient id="cl" x1="16.53" y1="81.19" x2="121.33" y2="81.19" xlink:href="#a"/><linearGradient id="cm" x1="17.88" y1="84.08" x2="122.68" y2="84.08" xlink:href="#a"/><linearGradient id="cn" x1="19.26" y1="87.05" x2="124.06" y2="87.05" xlink:href="#a"/><linearGradient id="co" x1="20.68" y1="90.09" x2="125.48" y2="90.09" xlink:href="#a"/><linearGradient id="cp" x1="22.14" y1="93.21" x2="126.94" y2="93.21" xlink:href="#a"/><linearGradient id="cq" x1="23.62" y1="96.4" x2="128.42" y2="96.4" xlink:href="#a"/><linearGradient id="cr" x1="25.14" y1="99.65" x2="129.94" y2="99.65" xlink:href="#a"/><linearGradient id="cs" x1="26.68" y1="102.96" x2="131.48" y2="102.96" xlink:href="#a"/><linearGradient id="ct" x1="28.26" y1="106.34" x2="133.06" y2="106.34" xlink:href="#a"/><linearGradient id="cu" x1="29.86" y1="109.76" x2="134.66" y2="109.76" xlink:href="#a"/><linearGradient id="cv" x1="31.48" y1="113.24" x2="136.28" y2="113.24" xlink:href="#a"/><linearGradient id="cw" x1="33.12" y1="116.77" x2="137.92" y2="116.77" xlink:href="#a"/><linearGradient id="cx" x1="34.79" y1="120.34" x2="139.59" y2="120.34" xlink:href="#a"/><linearGradient id="cy" x1="36.47" y1="123.95" x2="141.27" y2="123.95" xlink:href="#a"/><linearGradient id="cz" x1="38.17" y1="127.59" x2="142.97" y2="127.59" xlink:href="#a"/><linearGradient id="da" x1="39.88" y1="131.27" x2="144.68" y2="131.27" xlink:href="#a"/><linearGradient id="db" x1="41.61" y1="134.97" x2="146.41" y2="134.97" xlink:href="#a"/><linearGradient id="dc" x1="43.35" y1="138.7" x2="148.15" y2="138.7" xlink:href="#a"/><linearGradient id="dd" x1="45.1" y1="142.45" x2="149.9" y2="142.45" xlink:href="#a"/><linearGradient id="de" x1="46.85" y1="146.22" x2="151.65" y2="146.22" xlink:href="#a"/><linearGradient id="df" x1="48.62" y1="150" x2="153.42" y2="150" xlink:href="#a"/><linearGradient id="dg" x1="50.38" y1="153.78" x2="155.18" y2="153.78" xlink:href="#a"/><linearGradient id="dh" x1="52.15" y1="157.58" x2="156.95" y2="157.58" xlink:href="#a"/><linearGradient id="di" x1="53.92" y1="161.38" x2="158.72" y2="161.38" xlink:href="#a"/><linearGradient id="dj" x1="55.69" y1="165.17" x2="160.49" y2="165.17" xlink:href="#a"/><linearGradient id="dk" x1="57.46" y1="168.96" x2="162.26" y2="168.96" xlink:href="#a"/><linearGradient id="dl" x1="59.22" y1="172.74" x2="164.02" y2="172.74" xlink:href="#a"/><linearGradient id="dm" x1="60.98" y1="176.51" x2="165.78" y2="176.51" xlink:href="#a"/><linearGradient id="dn" x1="62.73" y1="180.26" x2="167.53" y2="180.26" xlink:href="#a"/><linearGradient id="do" x1="64.47" y1="183.99" x2="169.27" y2="183.99" xlink:href="#a"/><linearGradient id="dp" x1="66.2" y1="187.7" x2="171" y2="187.7" xlink:href="#a"/><linearGradient id="dq" x1="67.91" y1="191.37" x2="172.71" y2="191.37" xlink:href="#a"/><linearGradient id="dr" x1="69.61" y1="195.02" x2="174.41" y2="195.02" xlink:href="#a"/><linearGradient id="ds" x1="71.3" y1="198.63" x2="176.1" y2="198.63" xlink:href="#a"/><linearGradient id="dt" x1="72.96" y1="202.2" x2="177.76" y2="202.2" xlink:href="#a"/><linearGradient id="du" x1="74.61" y1="205.73" x2="179.41" y2="205.73" xlink:href="#a"/><linearGradient id="dv" x1="76.23" y1="209.21" x2="181.03" y2="209.21" xlink:href="#a"/><linearGradient id="dw" x1="77.83" y1="212.64" x2="182.63" y2="212.64" xlink:href="#a"/><linearGradient id="dx" x1="79.4" y1="216.02" x2="184.2" y2="216.02" xlink:href="#a"/><linearGradient id="dy" x1="80.95" y1="219.33" x2="185.75" y2="219.33" xlink:href="#a"/><linearGradient id="dz" x1="82.47" y1="222.59" x2="187.27" y2="222.59" xlink:href="#a"/><linearGradient id="ea" x1="83.96" y1="225.78" x2="188.76" y2="225.78" xlink:href="#a"/><linearGradient id="eb" x1="85.41" y1="228.9" x2="190.21" y2="228.9" xlink:href="#a"/><linearGradient id="ec" x1="86.83" y1="231.95" x2="191.63" y2="231.95" xlink:href="#a"/><linearGradient id="ed" x1="88.22" y1="234.92" x2="193.02" y2="234.92" xlink:href="#a"/><linearGradient id="ee" x1="89.56" y1="237.81" x2="194.36" y2="237.81" xlink:href="#a"/><linearGradient id="ef" x1="90.87" y1="240.62" x2="195.67" y2="240.62" xlink:href="#a"/><linearGradient id="eg" x1="92.14" y1="243.33" x2="196.94" y2="243.33" xlink:href="#a"/><linearGradient id="eh" x1="93.36" y1="245.96" x2="198.16" y2="245.96" xlink:href="#a"/><linearGradient id="ei" x1="94.54" y1="248.49" x2="199.34" y2="248.49" xlink:href="#a"/><linearGradient id="ej" x1="95.68" y1="250.92" x2="200.48" y2="250.92" xlink:href="#a"/><linearGradient id="ek" x1="96.76" y1="253.25" x2="201.56" y2="253.25" xlink:href="#a"/><linearGradient id="el" x1="97.8" y1="255.47" x2="202.6" y2="255.47" xlink:href="#a"/><linearGradient id="em" x1="98.78" y1="257.58" x2="203.58" y2="257.58" xlink:href="#a"/><linearGradient id="en" x1="99.71" y1="259.57" x2="204.51" y2="259.57" xlink:href="#a"/><linearGradient id="eo" x1="100.59" y1="261.45" x2="205.39" y2="261.45" xlink:href="#a"/><linearGradient id="ep" x1="101.41" y1="263.2" x2="206.21" y2="263.2" xlink:href="#a"/><linearGradient id="eq" x1="102.17" y1="264.83" x2="206.97" y2="264.83" xlink:href="#a"/><linearGradient id="er" x1="102.86" y1="266.33" x2="207.66" y2="266.33" xlink:href="#a"/><linearGradient id="es" x1="103.5" y1="267.7" x2="208.3" y2="267.7" xlink:href="#a"/><linearGradient id="et" x1="104.08" y1="268.93" x2="208.88" y2="268.93" xlink:href="#a"/><linearGradient id="eu" x1="104.77" y1="270.28" x2="209.57" y2="270.28" xlink:href="#a"/><linearGradient id="ev" x1="107.56" y1="270.28" x2="212.36" y2="270.28" xlink:href="#a"/><linearGradient id="ew" x1="108.25" y1="268.93" x2="213.05" y2="268.93" xlink:href="#a"/><linearGradient id="ex" x1="108.82" y1="267.7" x2="213.62" y2="267.7" xlink:href="#a"/><linearGradient id="ey" x1="109.46" y1="266.33" x2="214.26" y2="266.33" xlink:href="#a"/><linearGradient id="ez" x1="110.16" y1="264.83" x2="214.96" y2="264.83" xlink:href="#a"/><linearGradient id="fa" x1="110.92" y1="263.2" x2="215.72" y2="263.2" xlink:href="#a"/><linearGradient id="fb" x1="111.74" y1="261.45" x2="216.54" y2="261.45" xlink:href="#a"/><linearGradient id="fc" x1="112.61" y1="259.57" x2="217.41" y2="259.57" xlink:href="#a"/><linearGradient id="fd" x1="113.54" y1="257.58" x2="218.34" y2="257.58" xlink:href="#a"/><linearGradient id="fe" x1="114.53" y1="255.47" x2="219.33" y2="255.47" xlink:href="#a"/><linearGradient id="ff" x1="115.56" y1="253.25" x2="220.36" y2="253.25" xlink:href="#a"/><linearGradient id="fg" x1="116.65" y1="250.92" x2="221.45" y2="250.92" xlink:href="#a"/><linearGradient id="fh" x1="117.78" y1="248.49" x2="222.58" y2="248.49" xlink:href="#a"/><linearGradient id="fi" x1="118.96" y1="245.96" x2="223.76" y2="245.96" xlink:href="#a"/><linearGradient id="fj" x1="120.18" y1="243.33" x2="224.98" y2="243.33" xlink:href="#a"/><linearGradient id="fk" x1="121.45" y1="240.62" x2="226.25" y2="240.62" xlink:href="#a"/><linearGradient id="fl" x1="122.76" y1="237.81" x2="227.56" y2="237.81" xlink:href="#a"/><linearGradient id="fm" x1="124.11" y1="234.92" x2="228.91" y2="234.92" xlink:href="#a"/><linearGradient id="fn" x1="125.49" y1="231.95" x2="230.29" y2="231.95" xlink:href="#a"/><linearGradient id="fo" x1="126.91" y1="228.9" x2="231.71" y2="228.9" xlink:href="#a"/><linearGradient id="fp" x1="128.37" y1="225.78" x2="233.17" y2="225.78" xlink:href="#a"/><linearGradient id="fq" x1="129.86" y1="222.59" x2="234.66" y2="222.59" xlink:href="#a"/><linearGradient id="fr" x1="131.37" y1="219.33" x2="236.17" y2="219.33" xlink:href="#a"/><linearGradient id="fs" x1="132.92" y1="216.02" x2="237.72" y2="216.02" xlink:href="#a"/><linearGradient id="ft" x1="134.5" y1="212.64" x2="239.3" y2="212.64" xlink:href="#a"/><linearGradient id="fu" x1="136.1" y1="209.21" x2="240.9" y2="209.21" xlink:href="#a"/><linearGradient id="fv" x1="137.72" y1="205.73" x2="242.52" y2="205.73" xlink:href="#a"/><linearGradient id="fw" x1="139.36" y1="202.2" x2="244.16" y2="202.2" xlink:href="#a"/><linearGradient id="fx" x1="141.03" y1="198.63" x2="245.83" y2="198.63" xlink:href="#a"/><linearGradient id="fy" x1="142.71" y1="195.02" x2="247.51" y2="195.02" xlink:href="#a"/><linearGradient id="fz" x1="144.41" y1="191.37" x2="249.21" y2="191.37" xlink:href="#a"/><linearGradient id="ga" x1="146.13" y1="187.7" x2="250.93" y2="187.7" xlink:href="#a"/><linearGradient id="gb" x1="147.86" y1="183.99" x2="252.66" y2="183.99" xlink:href="#a"/><linearGradient id="gc" x1="149.59" y1="180.26" x2="254.39" y2="180.26" xlink:href="#a"/><linearGradient id="gd" x1="151.34" y1="176.51" x2="256.14" y2="176.51" xlink:href="#a"/><linearGradient id="ge" x1="153.1" y1="172.74" x2="257.9" y2="172.74" xlink:href="#a"/><linearGradient id="gf" x1="154.86" y1="168.96" x2="259.66" y2="168.96" xlink:href="#a"/><linearGradient id="gg" x1="156.63" y1="165.17" x2="261.43" y2="165.17" xlink:href="#a"/><linearGradient id="gh" x1="158.4" y1="161.38" x2="263.2" y2="161.38" xlink:href="#a"/><linearGradient id="gi" x1="160.17" y1="157.58" x2="264.97" y2="157.58" xlink:href="#a"/><linearGradient id="gj" x1="161.94" y1="153.78" x2="266.74" y2="153.78" xlink:href="#a"/><linearGradient id="gk" x1="163.71" y1="150" x2="268.51" y2="150" xlink:href="#a"/><linearGradient id="gl" x1="165.47" y1="146.22" x2="270.27" y2="146.22" xlink:href="#a"/><linearGradient id="gm" x1="167.23" y1="142.45" x2="272.03" y2="142.45" xlink:href="#a"/><linearGradient id="gn" x1="168.97" y1="138.7" x2="273.77" y2="138.7" xlink:href="#a"/><linearGradient id="go" x1="170.71" y1="134.97" x2="275.51" y2="134.97" xlink:href="#a"/><linearGradient id="gp" x1="172.44" y1="131.27" x2="277.24" y2="131.27" xlink:href="#a"/><linearGradient id="gq" x1="174.16" y1="127.59" x2="278.96" y2="127.59" xlink:href="#a"/><linearGradient id="gr" x1="175.85" y1="123.95" x2="280.65" y2="123.95" xlink:href="#a"/><linearGradient id="gs" x1="177.54" y1="120.34" x2="282.34" y2="120.34" xlink:href="#a"/><linearGradient id="gt" x1="179.2" y1="116.77" x2="284" y2="116.77" xlink:href="#a"/><linearGradient id="gu" x1="180.85" y1="113.24" x2="285.65" y2="113.24" xlink:href="#a"/><linearGradient id="gv" x1="182.47" y1="109.76" x2="287.27" y2="109.76" xlink:href="#a"/><linearGradient id="gw" x1="184.07" y1="106.34" x2="288.87" y2="106.34" xlink:href="#a"/><linearGradient id="gx" x1="185.64" y1="102.96" x2="290.44" y2="102.96" xlink:href="#a"/><linearGradient id="gy" x1="187.18" y1="99.65" x2="291.98" y2="99.65" xlink:href="#a"/><linearGradient id="gz" x1="188.7" y1="96.39" x2="293.5" y2="96.39" xlink:href="#a"/><linearGradient id="ha" x1="190.19" y1="93.21" x2="294.99" y2="93.21" xlink:href="#a"/><linearGradient id="hb" x1="191.64" y1="90.09" x2="296.44" y2="90.09" xlink:href="#a"/><linearGradient id="hc" x1="193.06" y1="87.05" x2="297.86" y2="87.05" xlink:href="#a"/><linearGradient id="hd" x1="194.44" y1="84.08" x2="299.24" y2="84.08" xlink:href="#a"/><linearGradient id="he" x1="195.79" y1="81.19" x2="300.59" y2="81.19" xlink:href="#a"/><linearGradient id="hf" x1="197.1" y1="78.39" x2="301.9" y2="78.39" xlink:href="#a"/><linearGradient id="hg" x1="198.36" y1="75.68" x2="303.16" y2="75.68" xlink:href="#a"/><linearGradient id="hh" x1="199.58" y1="73.06" x2="304.38" y2="73.06" xlink:href="#a"/><linearGradient id="hi" x1="200.76" y1="70.53" x2="305.56" y2="70.53" xlink:href="#a"/><linearGradient id="hj" x1="201.89" y1="68.11" x2="306.69" y2="68.11" xlink:href="#a"/><linearGradient id="hk" x1="202.98" y1="65.78" x2="307.78" y2="65.78" xlink:href="#a"/><linearGradient id="hl" x1="204.01" y1="63.57" x2="308.81" y2="63.57" xlink:href="#a"/><linearGradient id="hm" x1="204.99" y1="61.47" x2="309.79" y2="61.47" xlink:href="#a"/><linearGradient id="hn" x1="205.92" y1="59.48" x2="310.72" y2="59.48" xlink:href="#a"/><linearGradient id="ho" x1="206.79" y1="57.6" x2="311.59" y2="57.6" xlink:href="#a"/><linearGradient id="hp" x1="207.61" y1="55.86" x2="312.41" y2="55.86" xlink:href="#a"/><linearGradient id="hq" x1="208.36" y1="54.23" x2="313.16" y2="54.23" xlink:href="#a"/><linearGradient id="hr" x1="209.5" y1="52.4" x2="314.3" y2="52.4" xlink:href="#a"/><linearGradient id="hs" x1="212.16" y1="53.15" x2="316.96" y2="53.15" xlink:href="#a"/><linearGradient id="ht" x1="212.32" y1="56.44" x2="317.12" y2="56.44" xlink:href="#a"/><linearGradient id="hu" x1="212.32" y1="59.69" x2="317.12" y2="59.69" xlink:href="#a"/><linearGradient id="hv" x1="212.32" y1="62.94" x2="317.12" y2="62.94" xlink:href="#a"/><linearGradient id="hw" x1="212.32" y1="66.19" x2="317.12" y2="66.19" xlink:href="#a"/><linearGradient id="hx" x1="212.32" y1="69.44" x2="317.12" y2="69.44" xlink:href="#a"/><linearGradient id="hy" x1="212.32" y1="72.69" x2="317.12" y2="72.69" xlink:href="#a"/><linearGradient id="hz" x1="212.32" y1="75.94" x2="317.12" y2="75.94" xlink:href="#a"/><linearGradient id="ia" x1="212.32" y1="79.19" x2="317.12" y2="79.19" xlink:href="#a"/><linearGradient id="ib" x1="212.32" y1="82.44" x2="317.12" y2="82.44" xlink:href="#a"/><linearGradient id="ic" x1="212.32" y1="85.69" x2="317.12" y2="85.69" xlink:href="#a"/><linearGradient id="id" x1="212.32" y1="88.94" x2="317.12" y2="88.94" xlink:href="#a"/><linearGradient id="ie" x1="212.32" y1="92.19" x2="317.12" y2="92.19" xlink:href="#a"/><linearGradient id="if" x1="212.32" y1="95.44" x2="317.12" y2="95.44" xlink:href="#a"/><linearGradient id="ig" x1="212.32" y1="98.69" x2="317.12" y2="98.69" xlink:href="#a"/><linearGradient id="ih" x1="212.32" y1="101.94" x2="317.12" y2="101.94" xlink:href="#a"/><linearGradient id="ii" x1="212.32" y1="105.19" x2="317.12" y2="105.19" xlink:href="#a"/><linearGradient id="ij" x1="212.32" y1="108.44" x2="317.12" y2="108.44" xlink:href="#a"/><linearGradient id="ik" x1="212.32" y1="111.69" x2="317.12" y2="111.69" xlink:href="#a"/><linearGradient id="il" x1="212.32" y1="114.94" x2="317.12" y2="114.94" xlink:href="#a"/><linearGradient id="im" x1="212.32" y1="118.19" x2="317.12" y2="118.19" xlink:href="#a"/><linearGradient id="in" x1="212.32" y1="121.44" x2="317.12" y2="121.44" xlink:href="#a"/><linearGradient id="io" x1="212.32" y1="124.69" x2="317.12" y2="124.69" xlink:href="#a"/><linearGradient id="ip" x1="212.32" y1="127.94" x2="317.12" y2="127.94" xlink:href="#a"/><linearGradient id="iq" x1="212.32" y1="131.19" x2="317.12" y2="131.19" xlink:href="#a"/><linearGradient id="ir" x1="212.32" y1="134.44" x2="317.12" y2="134.44" xlink:href="#a"/><linearGradient id="is" x1="212.32" y1="137.69" x2="317.12" y2="137.69" xlink:href="#a"/><linearGradient id="it" x1="212.32" y1="140.94" x2="317.12" y2="140.94" xlink:href="#a"/><linearGradient id="iu" x1="212.32" y1="144.19" x2="317.12" y2="144.19" xlink:href="#a"/><linearGradient id="iv" x1="212.32" y1="147.44" x2="317.12" y2="147.44" xlink:href="#a"/><linearGradient id="iw" x1="212.32" y1="150.69" x2="317.12" y2="150.69" xlink:href="#a"/><linearGradient id="ix" x1="212.32" y1="153.94" x2="317.12" y2="153.94" xlink:href="#a"/><linearGradient id="iy" x1="212.32" y1="157.19" x2="317.12" y2="157.19" xlink:href="#a"/><linearGradient id="iz" x1="212.32" y1="160.44" x2="317.12" y2="160.44" xlink:href="#a"/><linearGradient id="ja" x1="212.32" y1="163.69" x2="317.12" y2="163.69" xlink:href="#a"/><linearGradient id="jb" x1="212.32" y1="166.94" x2="317.12" y2="166.94" xlink:href="#a"/><linearGradient id="jc" x1="212.32" y1="170.19" x2="317.12" y2="170.19" xlink:href="#a"/><linearGradient id="jd" x1="212.32" y1="173.44" x2="317.12" y2="173.44" xlink:href="#a"/><linearGradient id="je" x1="212.32" y1="176.69" x2="317.12" y2="176.69" xlink:href="#a"/><linearGradient id="jf" x1="212.32" y1="179.94" x2="317.12" y2="179.94" xlink:href="#a"/><linearGradient id="jg" x1="212.32" y1="183.19" x2="317.12" y2="183.19" xlink:href="#a"/><linearGradient id="jh" x1="212.32" y1="186.44" x2="317.12" y2="186.44" xlink:href="#a"/><linearGradient id="ji" x1="212.32" y1="189.69" x2="317.12" y2="189.69" xlink:href="#a"/><linearGradient id="jj" x1="212.32" y1="192.94" x2="317.12" y2="192.94" xlink:href="#a"/><linearGradient id="jk" x1="212.32" y1="196.19" x2="317.12" y2="196.19" xlink:href="#a"/><linearGradient id="jl" x1="212.32" y1="199.44" x2="317.12" y2="199.44" xlink:href="#a"/><linearGradient id="jm" x1="212.32" y1="202.69" x2="317.12" y2="202.69" xlink:href="#a"/><linearGradient id="jn" x1="212.32" y1="205.94" x2="317.12" y2="205.94" xlink:href="#a"/><linearGradient id="jo" x1="212.32" y1="209.19" x2="317.12" y2="209.19" xlink:href="#a"/><linearGradient id="jp" x1="212.32" y1="212.44" x2="317.12" y2="212.44" xlink:href="#a"/><linearGradient id="jq" x1="212.32" y1="215.69" x2="317.12" y2="215.69" xlink:href="#a"/><linearGradient id="jr" x1="212.32" y1="218.94" x2="317.12" y2="218.94" xlink:href="#a"/><linearGradient id="js" x1="212.32" y1="222.19" x2="317.12" y2="222.19" xlink:href="#a"/><linearGradient id="jt" x1="212.32" y1="225.44" x2="317.12" y2="225.44" xlink:href="#a"/><linearGradient id="ju" x1="212.32" y1="228.69" x2="317.12" y2="228.69" xlink:href="#a"/><linearGradient id="jv" x1="212.32" y1="231.94" x2="317.12" y2="231.94" xlink:href="#a"/><linearGradient id="jw" x1="212.32" y1="235.19" x2="317.12" y2="235.19" xlink:href="#a"/><linearGradient id="jx" x1="212.32" y1="238.44" x2="317.12" y2="238.44" xlink:href="#a"/><linearGradient id="jy" x1="212.32" y1="241.69" x2="317.12" y2="241.69" xlink:href="#a"/><linearGradient id="jz" x1="212.32" y1="244.94" x2="317.12" y2="244.94" xlink:href="#a"/><linearGradient id="ka" x1="212.32" y1="248.19" x2="317.12" y2="248.19" xlink:href="#a"/><linearGradient id="kb" x1="212.32" y1="251.44" x2="317.12" y2="251.44" xlink:href="#a"/><linearGradient id="kc" x1="212.32" y1="254.69" x2="317.12" y2="254.69" xlink:href="#a"/><linearGradient id="kd" x1="212.32" y1="257.94" x2="317.12" y2="257.94" xlink:href="#a"/><linearGradient id="ke" x1="212.32" y1="261.19" x2="317.12" y2="261.19" xlink:href="#a"/><linearGradient id="kf" x1="212.32" y1="264.44" x2="317.12" y2="264.44" xlink:href="#a"/><linearGradient id="kg" x1="212.32" y1="267.69" x2="317.12" y2="267.69" xlink:href="#a"/><linearGradient id="kh" x1="212.32" y1="270.94" x2="317.12" y2="270.94" xlink:href="#a"/><linearGradient id="ki" x1="212.32" y1="274.19" x2="317.12" y2="274.19" xlink:href="#a"/><linearGradient id="kj" x1="212.32" y1="277.44" x2="317.12" y2="277.44" xlink:href="#a"/><linearGradient id="kk" x1="212.32" y1="280.69" x2="317.12" y2="280.69" xlink:href="#a"/><linearGradient id="kl" x1="212.32" y1="283.94" x2="317.12" y2="283.94" xlink:href="#a"/><linearGradient id="km" x1="212.32" y1="287.19" x2="317.12" y2="287.19" xlink:href="#a"/><linearGradient id="kn" x1="212.32" y1="290.44" x2="317.12" y2="290.44" xlink:href="#a"/><linearGradient id="ko" x1="212.32" y1="293.69" x2="317.12" y2="293.69" xlink:href="#a"/><linearGradient id="kp" x1="212.32" y1="296.94" x2="317.12" y2="296.94" xlink:href="#a"/></defs><circle cx="52.4" cy="296.94" r="52.4" fill="url(#a)"/><circle cx="52.4" cy="293.69" r="52.4" fill="url(#b)"/><circle cx="52.4" cy="290.44" r="52.4" fill="url(#c)"/><circle cx="52.4" cy="287.19" r="52.4" fill="url(#d)"/><circle cx="52.4" cy="283.94" r="52.4" fill="url(#e)"/><circle cx="52.4" cy="280.69" r="52.4" fill="url(#f)"/><circle cx="52.4" cy="277.44" r="52.4" fill="url(#g)"/><circle cx="52.4" cy="274.19" r="52.4" fill="url(#h)"/><circle cx="52.4" cy="270.94" r="52.4" fill="url(#i)"/><circle cx="52.4" cy="267.69" r="52.4" fill="url(#j)"/><circle cx="52.4" cy="264.44" r="52.4" fill="url(#k)"/><circle cx="52.4" cy="261.19" r="52.4" fill="url(#l)"/><circle cx="52.4" cy="257.94" r="52.4" fill="url(#m)"/><circle cx="52.4" cy="254.69" r="52.4" fill="url(#n)"/><circle cx="52.4" cy="251.44" r="52.4" fill="url(#o)"/><circle cx="52.4" cy="248.19" r="52.4" fill="url(#p)"/><circle cx="52.4" cy="244.94" r="52.4" fill="url(#q)"/><circle cx="52.4" cy="241.69" r="52.4" fill="url(#r)"/><circle cx="52.4" cy="238.44" r="52.4" fill="url(#s)"/><circle cx="52.4" cy="235.19" r="52.4" fill="url(#t)"/><circle cx="52.4" cy="231.94" r="52.4" fill="url(#u)"/><circle cx="52.4" cy="228.69" r="52.4" fill="url(#v)"/><circle cx="52.4" cy="225.44" r="52.4" fill="url(#w)"/><circle cx="52.4" cy="222.19" r="52.4" fill="url(#x)"/><circle cx="52.4" cy="218.94" r="52.4" fill="url(#y)"/><circle cx="52.4" cy="215.69" r="52.4" fill="url(#z)"/><circle cx="52.4" cy="212.44" r="52.4" fill="url(#aa)"/><circle cx="52.4" cy="209.19" r="52.4" fill="url(#ab)"/><circle cx="52.4" cy="205.94" r="52.4" fill="url(#ac)"/><circle cx="52.4" cy="202.69" r="52.4" fill="url(#ad)"/><circle cx="52.4" cy="199.44" r="52.4" fill="url(#ae)"/><circle cx="52.4" cy="196.19" r="52.4" fill="url(#af)"/><circle cx="52.4" cy="192.94" r="52.4" fill="url(#ag)"/><circle cx="52.4" cy="189.69" r="52.4" fill="url(#ah)"/><circle cx="52.4" cy="186.44" r="52.4" fill="url(#ai)"/><circle cx="52.4" cy="183.19" r="52.4" fill="url(#aj)"/><circle cx="52.4" cy="179.94" r="52.4" fill="url(#ak)"/><circle cx="52.4" cy="176.69" r="52.4" fill="url(#al)"/><circle cx="52.4" cy="173.44" r="52.4" fill="url(#am)"/><circle cx="52.4" cy="170.19" r="52.4" fill="url(#an)"/><circle cx="52.4" cy="166.94" r="52.4" fill="url(#ao)"/><circle cx="52.4" cy="163.69" r="52.4" fill="url(#ap)"/><circle cx="52.4" cy="160.44" r="52.4" fill="url(#aq)"/><circle cx="52.4" cy="157.19" r="52.4" fill="url(#ar)"/><circle cx="52.4" cy="153.94" r="52.4" fill="url(#as)"/><circle cx="52.4" cy="150.69" r="52.4" fill="url(#at)"/><circle cx="52.4" cy="147.44" r="52.4" fill="url(#au)"/><circle cx="52.4" cy="144.19" r="52.4" fill="url(#av)"/><circle cx="52.4" cy="140.94" r="52.4" fill="url(#aw)"/><circle cx="52.4" cy="137.69" r="52.4" fill="url(#ax)"/><circle cx="52.4" cy="134.44" r="52.4" fill="url(#ay)"/><circle cx="52.4" cy="131.19" r="52.4" fill="url(#az)"/><circle cx="52.4" cy="127.94" r="52.4" fill="url(#ba)"/><circle cx="52.4" cy="124.69" r="52.4" fill="url(#bb)"/><circle cx="52.4" cy="121.44" r="52.4" fill="url(#bc)"/><circle cx="52.4" cy="118.19" r="52.4" fill="url(#bd)"/><circle cx="52.4" cy="114.94" r="52.4" fill="url(#be)"/><circle cx="52.4" cy="111.69" r="52.4" fill="url(#bf)"/><circle cx="52.4" cy="108.44" r="52.4" fill="url(#bg)"/><circle cx="52.4" cy="105.19" r="52.4" fill="url(#bh)"/><circle cx="52.4" cy="101.94" r="52.4" fill="url(#bi)"/><circle cx="52.4" cy="98.69" r="52.4" fill="url(#bj)"/><circle cx="52.4" cy="95.44" r="52.4" fill="url(#bk)"/><circle cx="52.4" cy="92.19" r="52.4" fill="url(#bl)"/><circle cx="52.4" cy="88.94" r="52.4" fill="url(#bm)"/><circle cx="52.4" cy="85.69" r="52.4" fill="url(#bn)"/><circle cx="52.4" cy="82.44" r="52.4" fill="url(#bo)"/><circle cx="52.4" cy="79.19" r="52.4" fill="url(#bp)"/><circle cx="52.4" cy="75.94" r="52.4" fill="url(#bq)"/><circle cx="52.4" cy="72.69" r="52.4" fill="url(#br)"/><circle cx="52.4" cy="69.44" r="52.4" fill="url(#bs)"/><circle cx="52.4" cy="66.19" r="52.4" fill="url(#bt)"/><circle cx="52.4" cy="62.94" r="52.4" fill="url(#bu)"/><circle cx="52.4" cy="59.69" r="52.4" fill="url(#bv)"/><circle cx="52.4" cy="56.44" r="52.4" fill="url(#bw)"/><circle cx="52.56" cy="53.15" r="52.4" fill="url(#bx)"/><circle cx="55.22" cy="52.4" r="52.4" fill="url(#by)"/><circle cx="56.36" cy="54.23" r="52.4" fill="url(#bz)"/><circle cx="57.12" cy="55.86" r="52.4" fill="url(#ca)"/><circle cx="57.93" cy="57.6" r="52.4" fill="url(#cb)"/><circle cx="58.81" cy="59.48" r="52.4" fill="url(#cc)"/><circle cx="59.73" cy="61.47" r="52.4" fill="url(#cd)"/><circle cx="60.72" cy="63.57" r="52.4" fill="url(#ce)"/><circle cx="61.75" cy="65.78" r="52.4" fill="url(#cf)"/><circle cx="62.83" cy="68.11" r="52.4" fill="url(#cg)"/><circle cx="63.96" cy="70.53" r="52.4" fill="url(#ch)"/><circle cx="65.14" cy="73.06" r="52.4" fill="url(#ci)"/><circle cx="66.36" cy="75.68" r="52.4" fill="url(#cj)"/><circle cx="67.63" cy="78.39" r="52.4" fill="url(#ck)"/><circle cx="68.93" cy="81.19" r="52.4" fill="url(#cl)"/><circle cx="70.28" cy="84.08" r="52.4" fill="url(#cm)"/><circle cx="71.66" cy="87.05" r="52.4" fill="url(#cn)"/><circle cx="73.08" cy="90.09" r="52.4" fill="url(#co)"/><circle cx="74.54" cy="93.21" r="52.4" fill="url(#cp)"/><circle cx="76.02" cy="96.4" r="52.4" fill="url(#cq)"/><circle cx="77.54" cy="99.65" r="52.4" fill="url(#cr)"/><circle cx="79.08" cy="102.96" r="52.4" fill="url(#cs)"/><circle cx="80.66" cy="106.34" r="52.4" fill="url(#ct)"/><circle cx="82.26" cy="109.76" r="52.4" fill="url(#cu)"/><circle cx="83.88" cy="113.24" r="52.4" fill="url(#cv)"/><circle cx="85.52" cy="116.77" r="52.4" fill="url(#cw)"/><circle cx="87.19" cy="120.34" r="52.4" fill="url(#cx)"/><circle cx="88.87" cy="123.95" r="52.4" fill="url(#cy)"/><circle cx="90.57" cy="127.59" r="52.4" fill="url(#cz)"/><circle cx="92.28" cy="131.27" r="52.4" fill="url(#da)"/><circle cx="94.01" cy="134.97" r="52.4" fill="url(#db)"/><circle cx="95.75" cy="138.7" r="52.4" fill="url(#dc)"/><circle cx="97.5" cy="142.45" r="52.4" fill="url(#dd)"/><circle cx="99.25" cy="146.22" r="52.4" fill="url(#de)"/><circle cx="101.02" cy="150" r="52.4" fill="url(#df)"/><circle cx="102.78" cy="153.78" r="52.4" fill="url(#dg)"/><circle cx="104.55" cy="157.58" r="52.4" fill="url(#dh)"/><circle cx="106.32" cy="161.38" r="52.4" fill="url(#di)"/><circle cx="108.09" cy="165.17" r="52.4" fill="url(#dj)"/><circle cx="109.86" cy="168.96" r="52.4" fill="url(#dk)"/><circle cx="111.62" cy="172.74" r="52.4" fill="url(#dl)"/><circle cx="113.38" cy="176.51" r="52.4" fill="url(#dm)"/><circle cx="115.13" cy="180.26" r="52.4" fill="url(#dn)"/><circle cx="116.87" cy="183.99" r="52.4" fill="url(#do)"/><circle cx="118.6" cy="187.7" r="52.4" fill="url(#dp)"/><circle cx="120.31" cy="191.37" r="52.4" fill="url(#dq)"/><circle cx="122.01" cy="195.02" r="52.4" fill="url(#dr)"/><circle cx="123.7" cy="198.63" r="52.4" fill="url(#ds)"/><circle cx="125.36" cy="202.2" r="52.4" fill="url(#dt)"/><circle cx="127.01" cy="205.73" r="52.4" fill="url(#du)"/><circle cx="128.63" cy="209.21" r="52.4" fill="url(#dv)"/><circle cx="130.23" cy="212.64" r="52.4" fill="url(#dw)"/><circle cx="131.8" cy="216.02" r="52.4" fill="url(#dx)"/><circle cx="133.35" cy="219.33" r="52.4" fill="url(#dy)"/><circle cx="134.87" cy="222.59" r="52.4" fill="url(#dz)"/><circle cx="136.36" cy="225.78" r="52.4" fill="url(#ea)"/><circle cx="137.81" cy="228.9" r="52.4" fill="url(#eb)"/><circle cx="139.23" cy="231.95" r="52.4" fill="url(#ec)"/><circle cx="140.62" cy="234.92" r="52.4" fill="url(#ed)"/><circle cx="141.96" cy="237.81" r="52.4" fill="url(#ee)"/><circle cx="143.27" cy="240.62" r="52.4" fill="url(#ef)"/><circle cx="144.54" cy="243.33" r="52.4" fill="url(#eg)"/><circle cx="145.76" cy="245.96" r="52.4" fill="url(#eh)"/><circle cx="146.94" cy="248.49" r="52.4" fill="url(#ei)"/><circle cx="148.08" cy="250.92" r="52.4" fill="url(#ej)"/><circle cx="149.16" cy="253.25" r="52.4" fill="url(#ek)"/><circle cx="150.2" cy="255.47" r="52.4" fill="url(#el)"/><circle cx="151.18" cy="257.58" r="52.4" fill="url(#em)"/><circle cx="152.11" cy="259.57" r="52.4" fill="url(#en)"/><circle cx="152.99" cy="261.45" r="52.4" fill="url(#eo)"/><circle cx="153.81" cy="263.2" r="52.4" fill="url(#ep)"/><circle cx="154.57" cy="264.83" r="52.4" fill="url(#eq)"/><circle cx="155.26" cy="266.33" r="52.4" fill="url(#er)"/><circle cx="155.9" cy="267.7" r="52.4" fill="url(#es)"/><circle cx="156.48" cy="268.93" r="52.4" fill="url(#et)"/><circle cx="157.17" cy="270.28" r="52.4" fill="url(#eu)"/><circle cx="159.96" cy="270.28" r="52.4" fill="url(#ev)"/><circle cx="160.65" cy="268.93" r="52.4" fill="url(#ew)"/><circle cx="161.22" cy="267.7" r="52.4" fill="url(#ex)"/><circle cx="161.86" cy="266.33" r="52.4" fill="url(#ey)"/><circle cx="162.56" cy="264.83" r="52.4" fill="url(#ez)"/><circle cx="163.32" cy="263.2" r="52.4" fill="url(#fa)"/><circle cx="164.14" cy="261.45" r="52.4" fill="url(#fb)"/><circle cx="165.01" cy="259.57" r="52.4" fill="url(#fc)"/><circle cx="165.94" cy="257.58" r="52.4" fill="url(#fd)"/><circle cx="166.93" cy="255.47" r="52.4" fill="url(#fe)"/><circle cx="167.96" cy="253.25" r="52.4" fill="url(#ff)"/><circle cx="169.05" cy="250.92" r="52.4" fill="url(#fg)"/><circle cx="170.18" cy="248.49" r="52.4" fill="url(#fh)"/><circle cx="171.36" cy="245.96" r="52.4" fill="url(#fi)"/><circle cx="172.58" cy="243.33" r="52.4" fill="url(#fj)"/><circle cx="173.85" cy="240.62" r="52.4" fill="url(#fk)"/><circle cx="175.16" cy="237.81" r="52.4" fill="url(#fl)"/><circle cx="176.51" cy="234.92" r="52.4" fill="url(#fm)"/><circle cx="177.89" cy="231.95" r="52.4" fill="url(#fn)"/><circle cx="179.31" cy="228.9" r="52.4" fill="url(#fo)"/><circle cx="180.77" cy="225.78" r="52.4" fill="url(#fp)"/><circle cx="182.26" cy="222.59" r="52.4" fill="url(#fq)"/><circle cx="183.77" cy="219.33" r="52.4" fill="url(#fr)"/><circle cx="185.32" cy="216.02" r="52.4" fill="url(#fs)"/><circle cx="186.9" cy="212.64" r="52.4" fill="url(#ft)"/><circle cx="188.5" cy="209.21" r="52.4" fill="url(#fu)"/><circle cx="190.12" cy="205.73" r="52.4" fill="url(#fv)"/><circle cx="191.76" cy="202.2" r="52.4" fill="url(#fw)"/><circle cx="193.43" cy="198.63" r="52.4" fill="url(#fx)"/><circle cx="195.11" cy="195.02" r="52.4" fill="url(#fy)"/><circle cx="196.81" cy="191.37" r="52.4" fill="url(#fz)"/><circle cx="198.53" cy="187.7" r="52.4" fill="url(#ga)"/><circle cx="200.26" cy="183.99" r="52.4" fill="url(#gb)"/><circle cx="201.99" cy="180.26" r="52.4" fill="url(#gc)"/><circle cx="203.74" cy="176.51" r="52.4" fill="url(#gd)"/><circle cx="205.5" cy="172.74" r="52.4" fill="url(#ge)"/><circle cx="207.26" cy="168.96" r="52.4" fill="url(#gf)"/><circle cx="209.03" cy="165.17" r="52.4" fill="url(#gg)"/><circle cx="210.8" cy="161.38" r="52.4" fill="url(#gh)"/><circle cx="212.57" cy="157.58" r="52.4" fill="url(#gi)"/><circle cx="214.34" cy="153.78" r="52.4" fill="url(#gj)"/><circle cx="216.11" cy="150" r="52.4" fill="url(#gk)"/><circle cx="217.87" cy="146.22" r="52.4" fill="url(#gl)"/><circle cx="219.63" cy="142.45" r="52.4" fill="url(#gm)"/><circle cx="221.37" cy="138.7" r="52.4" fill="url(#gn)"/><circle cx="223.11" cy="134.97" r="52.4" fill="url(#go)"/><circle cx="224.84" cy="131.27" r="52.4" fill="url(#gp)"/><circle cx="226.56" cy="127.59" r="52.4" fill="url(#gq)"/><circle cx="228.25" cy="123.95" r="52.4" fill="url(#gr)"/><circle cx="229.94" cy="120.34" r="52.4" fill="url(#gs)"/><circle cx="231.6" cy="116.77" r="52.4" fill="url(#gt)"/><circle cx="233.25" cy="113.24" r="52.4" fill="url(#gu)"/><circle cx="234.87" cy="109.76" r="52.4" fill="url(#gv)"/><circle cx="236.47" cy="106.34" r="52.4" fill="url(#gw)"/><circle cx="238.04" cy="102.96" r="52.4" fill="url(#gx)"/><circle cx="239.58" cy="99.65" r="52.4" fill="url(#gy)"/><circle cx="241.1" cy="96.39" r="52.4" fill="url(#gz)"/><circle cx="242.59" cy="93.21" r="52.4" fill="url(#ha)"/><circle cx="244.04" cy="90.09" r="52.4" fill="url(#hb)"/><circle cx="245.46" cy="87.05" r="52.4" fill="url(#hc)"/><circle cx="246.84" cy="84.08" r="52.4" fill="url(#hd)"/><circle cx="248.19" cy="81.19" r="52.4" fill="url(#he)"/><circle cx="249.5" cy="78.39" r="52.4" fill="url(#hf)"/><circle cx="250.76" cy="75.68" r="52.4" fill="url(#hg)"/><circle cx="251.98" cy="73.06" r="52.4" fill="url(#hh)"/><circle cx="253.16" cy="70.53" r="52.4" fill="url(#hi)"/><circle cx="254.29" cy="68.11" r="52.4" fill="url(#hj)"/><circle cx="255.38" cy="65.78" r="52.4" fill="url(#hk)"/><circle cx="256.41" cy="63.57" r="52.4" fill="url(#hl)"/><circle cx="257.39" cy="61.47" r="52.4" fill="url(#hm)"/><circle cx="258.32" cy="59.48" r="52.4" fill="url(#hn)"/><circle cx="259.19" cy="57.6" r="52.4" fill="url(#ho)"/><circle cx="260.01" cy="55.86" r="52.4" fill="url(#hp)"/><circle cx="260.76" cy="54.23" r="52.4" fill="url(#hq)"/><circle cx="261.9" cy="52.4" r="52.4" fill="url(#hr)"/><circle cx="264.56" cy="53.15" r="52.4" fill="url(#hs)"/><circle cx="264.72" cy="56.44" r="52.4" fill="url(#ht)"/><circle cx="264.72" cy="59.69" r="52.4" fill="url(#hu)"/><circle cx="264.72" cy="62.94" r="52.4" fill="url(#hv)"/><circle cx="264.72" cy="66.19" r="52.4" fill="url(#hw)"/><circle cx="264.72" cy="69.44" r="52.4" fill="url(#hx)"/><circle cx="264.72" cy="72.69" r="52.4" fill="url(#hy)"/><circle cx="264.72" cy="75.94" r="52.4" fill="url(#hz)"/><circle cx="264.72" cy="79.19" r="52.4" fill="url(#ia)"/><circle cx="264.72" cy="82.44" r="52.4" fill="url(#ib)"/><circle cx="264.72" cy="85.69" r="52.4" fill="url(#ic)"/><circle cx="264.72" cy="88.94" r="52.4" fill="url(#id)"/><circle cx="264.72" cy="92.19" r="52.4" fill="url(#ie)"/><circle cx="264.72" cy="95.44" r="52.4" fill="url(#if)"/><circle cx="264.72" cy="98.69" r="52.4" fill="url(#ig)"/><circle cx="264.72" cy="101.94" r="52.4" fill="url(#ih)"/><circle cx="264.72" cy="105.19" r="52.4" fill="url(#ii)"/><circle cx="264.72" cy="108.44" r="52.4" fill="url(#ij)"/><circle cx="264.72" cy="111.69" r="52.4" fill="url(#ik)"/><circle cx="264.72" cy="114.94" r="52.4" fill="url(#il)"/><circle cx="264.72" cy="118.19" r="52.4" fill="url(#im)"/><circle cx="264.72" cy="121.44" r="52.4" fill="url(#in)"/><circle cx="264.72" cy="124.69" r="52.4" fill="url(#io)"/><circle cx="264.72" cy="127.94" r="52.4" fill="url(#ip)"/><circle cx="264.72" cy="131.19" r="52.4" fill="url(#iq)"/><circle cx="264.72" cy="134.44" r="52.4" fill="url(#ir)"/><circle cx="264.72" cy="137.69" r="52.4" fill="url(#is)"/><circle cx="264.72" cy="140.94" r="52.4" fill="url(#it)"/><circle cx="264.72" cy="144.19" r="52.4" fill="url(#iu)"/><circle cx="264.72" cy="147.44" r="52.4" fill="url(#iv)"/><circle cx="264.72" cy="150.69" r="52.4" fill="url(#iw)"/><circle cx="264.72" cy="153.94" r="52.4" fill="url(#ix)"/><circle cx="264.72" cy="157.19" r="52.4" fill="url(#iy)"/><circle cx="264.72" cy="160.44" r="52.4" fill="url(#iz)"/><circle cx="264.72" cy="163.69" r="52.4" fill="url(#ja)"/><circle cx="264.72" cy="166.94" r="52.4" fill="url(#jb)"/><circle cx="264.72" cy="170.19" r="52.4" fill="url(#jc)"/><circle cx="264.72" cy="173.44" r="52.4" fill="url(#jd)"/><circle cx="264.72" cy="176.69" r="52.4" fill="url(#je)"/><circle cx="264.72" cy="179.94" r="52.4" fill="url(#jf)"/><circle cx="264.72" cy="183.19" r="52.4" fill="url(#jg)"/><circle cx="264.72" cy="186.44" r="52.4" fill="url(#jh)"/><circle cx="264.72" cy="189.69" r="52.4" fill="url(#ji)"/><circle cx="264.72" cy="192.94" r="52.4" fill="url(#jj)"/><circle cx="264.72" cy="196.19" r="52.4" fill="url(#jk)"/><circle cx="264.72" cy="199.44" r="52.4" fill="url(#jl)"/><circle cx="264.72" cy="202.69" r="52.4" fill="url(#jm)"/><circle cx="264.72" cy="205.94" r="52.4" fill="url(#jn)"/><circle cx="264.72" cy="209.19" r="52.4" fill="url(#jo)"/><circle cx="264.72" cy="212.44" r="52.4" fill="url(#jp)"/><circle cx="264.72" cy="215.69" r="52.4" fill="url(#jq)"/><circle cx="264.72" cy="218.94" r="52.4" fill="url(#jr)"/><circle cx="264.72" cy="222.19" r="52.4" fill="url(#js)"/><circle cx="264.72" cy="225.44" r="52.4" fill="url(#jt)"/><circle cx="264.72" cy="228.69" r="52.4" fill="url(#ju)"/><circle cx="264.72" cy="231.94" r="52.4" fill="url(#jv)"/><circle cx="264.72" cy="235.19" r="52.4" fill="url(#jw)"/><circle cx="264.72" cy="238.44" r="52.4" fill="url(#jx)"/><circle cx="264.72" cy="241.69" r="52.4" fill="url(#jy)"/><circle cx="264.72" cy="244.94" r="52.4" fill="url(#jz)"/><circle cx="264.72" cy="248.19" r="52.4" fill="url(#ka)"/><circle cx="264.72" cy="251.44" r="52.4" fill="url(#kb)"/><circle cx="264.72" cy="254.69" r="52.4" fill="url(#kc)"/><circle cx="264.72" cy="257.94" r="52.4" fill="url(#kd)"/><circle cx="264.72" cy="261.19" r="52.4" fill="url(#ke)"/><circle cx="264.72" cy="264.44" r="52.4" fill="url(#kf)"/><circle cx="264.72" cy="267.69" r="52.4" fill="url(#kg)"/><circle cx="264.72" cy="270.94" r="52.4" fill="url(#kh)"/><circle cx="264.72" cy="274.19" r="52.4" fill="url(#ki)"/><circle cx="264.72" cy="277.44" r="52.4" fill="url(#kj)"/><circle cx="264.72" cy="280.69" r="52.4" fill="url(#kk)"/><circle cx="264.72" cy="283.94" r="52.4" fill="url(#kl)"/><circle cx="264.72" cy="287.19" r="52.4" fill="url(#km)"/><circle cx="264.72" cy="290.44" r="52.4" fill="url(#kn)"/><circle cx="264.72" cy="293.69" r="52.4" fill="url(#ko)"/><circle cx="264.72" cy="296.94" r="52.4" fill="url(#kp)"/></svg>